<?xml version="1.0" encoding="utf-8"?>
<!-- Generator: Adobe Illustrator 27.5.0, SVG Export Plug-In . SVG Version: 6.00 Build 0)  -->
<svg version="1.1" xmlns="http://www.w3.org/2000/svg" xmlns:xlink="http://www.w3.org/1999/xlink" x="0px" y="0px"
	 viewBox="0 0 750 500" style="enable-background:new 0 0 750 500;" xml:space="preserve">
<g id="BACKGROUND">
	<rect style="fill:#FFFFFF;" width="750" height="500"/>
</g>
<g id="OBJECTS">
	<g>
		<g>
			<polygon style="fill:#9C612A;" points="271.425,283.092 290.564,424.935 285.769,424.935 261.592,282.896 			"/>
			<polygon style="fill:#9C612A;" points="226.567,283.092 207.428,424.935 212.223,424.935 236.4,282.896 			"/>
		</g>
		<g>
			<polygon style="fill:#9C612A;" points="366.277,315.904 380.621,420.529 375.787,420.529 352.965,315.904 			"/>
			<polygon style="fill:#9C612A;" points="311.578,315.904 297.234,420.529 302.068,420.529 324.89,315.904 			"/>
		</g>
		<path style="fill:#E8A600;" d="M349.736,211.842h33.469c6.259,0,11.023,5.613,10.006,11.789l-13.988,84.934
			c-0.964,5.855-6.026,10.152-11.96,10.152h-65.579L349.736,211.842z"/>
		
			<rect x="275.038" y="155.293" style="fill:none;stroke:#3E42D6;stroke-width:0.4288;stroke-miterlimit:10;" width="60.208" height="58.344"/>
		<g>
			<rect x="310.976" y="124.566" style="fill:#E8A600;" width="62.673" height="56.241"/>
			<g>
				
					<line style="fill:none;stroke:#FFFFFF;stroke-width:0.4545;stroke-miterlimit:10;" x1="318.605" y1="135.436" x2="356.48" y2="135.436"/>
				
					<line style="fill:none;stroke:#FFFFFF;stroke-width:0.4545;stroke-miterlimit:10;" x1="318.605" y1="144.061" x2="356.48" y2="144.061"/>
				
					<line style="fill:none;stroke:#FFFFFF;stroke-width:0.4545;stroke-miterlimit:10;" x1="318.605" y1="152.686" x2="356.48" y2="152.686"/>
				
					<line style="fill:none;stroke:#FFFFFF;stroke-width:0.4545;stroke-miterlimit:10;" x1="318.605" y1="161.311" x2="356.48" y2="161.311"/>
				
					<line style="fill:none;stroke:#FFFFFF;stroke-width:0.4545;stroke-miterlimit:10;" x1="318.605" y1="169.936" x2="356.48" y2="169.936"/>
			</g>
			<g>
				<polyline style="fill:none;stroke:#3E42D6;stroke-linecap:round;stroke-linejoin:round;stroke-miterlimit:10;" points="
					359.791,133.785 362.668,137.104 366.793,132.323 				"/>
				<polyline style="fill:none;stroke:#3E42D6;stroke-linecap:round;stroke-linejoin:round;stroke-miterlimit:10;" points="
					359.791,142.373 362.668,145.692 366.793,140.911 				"/>
				<polyline style="fill:none;stroke:#3E42D6;stroke-linecap:round;stroke-linejoin:round;stroke-miterlimit:10;" points="
					359.791,150.961 362.668,154.281 366.793,149.499 				"/>
				<polyline style="fill:none;stroke:#3E42D6;stroke-linecap:round;stroke-linejoin:round;stroke-miterlimit:10;" points="
					359.791,159.549 362.668,162.869 366.793,158.088 				"/>
				<polyline style="fill:none;stroke:#3E42D6;stroke-linecap:round;stroke-linejoin:round;stroke-miterlimit:10;" points="
					359.791,168.138 362.668,171.457 366.793,166.676 				"/>
			</g>
		</g>
		<g>
			<path d="M291.255,412.047l-2.208-3.704l-2.159-6.888l-12.279,3.455l0.013,1.676c0.02,2.58-1.213,5.006-3.311,6.508
				c-2.471,1.769-5.825,4.154-8.312,5.868c-1.384,0.954-2.232,1.978-2.742,2.936c-0.87,1.632,0.729,3.491,2.494,2.938l20.51-6.428
				l0.434-2.69l1.214,2.174l4.673-1.465C291.424,415.85,292.243,413.704,291.255,412.047z"/>
			<path style="fill:#5C4B4B;" d="M297.151,421.255l-0.999-4.195v-7.219l-12.75-0.375l-0.489,1.603
				c-0.753,2.468-2.655,4.414-5.106,5.22c-2.887,0.949-6.801,2.222-9.686,3.114c-1.606,0.496-2.721,1.22-3.495,1.982
				c-1.318,1.297-0.348,3.549,1.501,3.549h21.493l1.219-2.438l0.508,2.438h4.897C296.174,424.935,297.598,423.133,297.151,421.255z"
				/>
			<path style="fill:#3E42D6;" d="M305.152,201.717l15.188,62.719h-13.781l-10.875-22.594l-11.438,36.469l-35.25-5.063
				c0,0,24.656-46.875,29.016-53.437s12.867-19.802,28.336-22.523L305.152,201.717z"/>
			<g>
				<path style="fill:#FF8C8C;" d="M309.043,186.389l9,6.141c0,0-2.344,9.703-8.438,9.75l-8.906-7.945L309.043,186.389z"/>
				<path style="fill:#F05252;" d="M308.012,188.727c0,0,1.466,7.215-3.658,8.867l-3.13-2.793L308.012,188.727z"/>
				<path d="M295.405,181.609c0,0-1.477-1.336-2.531-3.586c-1.055-2.25,0.633-6.891,5.766-8.156
					c5.133-1.266,10.617,0.844,10.969,4.008c4.078,1.547,4.078,6.469,2.672,9.773c-1.406,3.305-3.021,3.916-3.021,3.916
					L295.405,181.609z"/>
				<path style="fill:#FF8C8C;" d="M294.842,178.796c0,0,3.586,1.687,9.352,0.351c0,0,0,1.969,2.32,4.781
					c0,0,0.914-2.25,2.602-1.477c1.688,0.773,1.266,5.414-0.914,5.695c0,0-1.898,6.891-7.313,7.242
					c-5.414,0.352-7.734-5.133-6.258-8.789L294.842,178.796z"/>
				<g>
					<path d="M297.233,184.246c0,0.544-0.236,0.984-0.527,0.984c-0.291,0-0.527-0.441-0.527-0.984c0-0.544,0.236-0.984,0.527-0.984
						C296.997,183.261,297.233,183.702,297.233,184.246z"/>
					<path d="M301.451,184.246c0,0.544-0.236,0.984-0.527,0.984c-0.291,0-0.527-0.441-0.527-0.984c0-0.544,0.236-0.984,0.527-0.984
						C301.215,183.261,301.451,183.702,301.451,184.246z"/>
				</g>
				
					<line style="fill:none;stroke:#000000;stroke-width:0.4545;stroke-miterlimit:10;" x1="299.904" y1="182.417" x2="302.541" y2="182.242"/>
				
					<line style="fill:none;stroke:#000000;stroke-width:0.4545;stroke-miterlimit:10;" x1="297.444" y1="182.242" x2="295.545" y2="181.96"/>
				<path style="fill:none;stroke:#F05252;stroke-width:0.4545;stroke-miterlimit:10;" d="M298.332,183.858l-0.211,2.426
					c0,0-1.02,0.264-1.055,0.818c-0.035,0.553,1.266,0.659,1.266,0.659"/>
				
					<line style="fill:none;stroke:#F05252;stroke-width:0.4545;stroke-miterlimit:10;" x1="297.233" y1="189.096" x2="302.851" y2="188.358"/>
			</g>
			<path style="fill:#43753F;" d="M314.247,189.94c1.592,1.086,0.89,4.887-0.376,6.645c-1.266,1.758-4.112,4.318-6.732,3.495
				l-1.669-1.489c0,0-1.091,1.509-0.318,3.126l12,81.375h42.187l-21.844-88.758l-17.531-2.508c0,0-4.913-4.605-7.495-3.1
				L314.247,189.94z"/>
			<path style="fill:#212373;" d="M337.394,280.836c0,0-43.773,3.006-56.288,4.131c-12.516,1.125-41.203,7.313-37.828,30.937
				c2.964,20.744,27.984,94.359,27.984,94.359l19.301-4.586l-10.16-87.523l54.844-10.406L337.394,280.836z"/>
			<polygon style="fill:#3E42D6;" points="269.832,406.022 289.956,400.457 290.562,405.677 271.262,410.264 			"/>
			
				<line style="fill:none;stroke:#000000;stroke-width:0.4545;stroke-miterlimit:10;" x1="267.465" y1="304.795" x2="279.277" y2="311.686"/>
			
				<line style="fill:none;stroke:#000000;stroke-width:0.4545;stroke-miterlimit:10;" x1="269.293" y1="308.873" x2="276.465" y2="315.904"/>
			<path style="fill:#2E31A1;" d="M372.277,277.092c6.557,6.753,4.5,29.25-11.062,33.187c-15.563,3.938-53.016,7.5-53.016,7.5
				l-9.422,93.328H277.59c0,0-3.188-69.516-2.438-89.766c0.75-20.25,5.813-28.5,16.5-31.687s57-10.688,57-10.688L372.277,277.092z"
				/>
			
				<line style="fill:none;stroke:#000000;stroke-width:0.4545;stroke-miterlimit:10;" x1="307.871" y1="315.904" x2="299.058" y2="308.873"/>
			
				<line style="fill:none;stroke:#000000;stroke-width:0.4545;stroke-miterlimit:10;" x1="301.683" y1="313.748" x2="304.875" y2="319.936"/>
			<path style="opacity:0.49;" d="M266.149,275.712l18.097,2.599l11.437-36.469l10.875,22.594h13.781l-12.097-49.957
				C303.037,226.304,287.528,258.493,266.149,275.712z"/>
			<polygon style="fill:#EBCE99;" points="296.059,222.905 309.377,230.365 302.718,240.811 320.34,264.436 305.152,201.717 			"/>
			
				<line style="fill:none;stroke:#000000;stroke-width:0.4545;stroke-miterlimit:10;" x1="295.684" y1="241.842" x2="290.035" y2="230.194"/>
			
				<line style="fill:none;stroke:#000000;stroke-width:0.4545;stroke-miterlimit:10;" x1="287.293" y1="234.834" x2="293.832" y2="240.6"/>
			<path style="fill:#3E42D6;" d="M277.334,405.342c0.157,3.627,0.255,5.766,0.255,5.766h21.188l0.582-5.766H277.334z"/>
			<path style="fill:#3E42D6;" d="M321.415,192.034c0.706,4.433,2.159,14.183,3.787,24.424c-1.266,9.141-4.441,37.431-4.441,37.431
				l-42.75,17.437v11.109c0,0,30.504-1.754,43.875-2.391c11.813-0.563,17.827-6.093,21.104-10.098l3.095,17.476h34.536
				l-11.156-22.331c0,0-6.883-34.829-10.125-47.39c-3.242-12.561-12.511-21.001-20.156-23.368
				C331.538,191.968,321.415,192.034,321.415,192.034z"/>
			<path style="fill:none;stroke:#000000;stroke-width:0.4545;stroke-miterlimit:10;" d="M342.991,269.947
				c4.771-6.074,13.49-44.183,13.49-44.183"/>
			<path style="fill:none;stroke:#000000;stroke-width:0.4545;stroke-miterlimit:10;" d="M324.889,218.986
				c0,0,1.076-17.971,12.185-20.643"/>
			
				<line style="fill:none;stroke:#000000;stroke-width:0.4545;stroke-miterlimit:10;" x1="321.887" y1="254.03" x2="330.982" y2="254.03"/>
			
				<line style="fill:none;stroke:#000000;stroke-width:0.4545;stroke-miterlimit:10;" x1="324.889" y1="252.483" x2="335.246" y2="250.373"/>
			<path style="fill:none;stroke:#FFFFFF;stroke-width:0.4545;stroke-miterlimit:10;" d="M348.652,267.342h17.625
				c0,0-1.309,8.906-8.622,8.906S348.652,267.342,348.652,267.342z"/>
			<path style="opacity:0.49;" d="M351.398,246.043c-4.996,18.955-7.734,22.882-7.734,22.882l-0.574,1.59l2.994,16.908h19.593
				L351.398,246.043z"/>
		</g>
		<g>
			<polygon style="fill:#9C612A;" points="335.246,283.092 354.385,424.935 349.59,424.935 325.412,282.896 			"/>
			<polygon style="fill:#9C612A;" points="290.388,283.092 271.249,424.935 276.044,424.935 300.221,282.896 			"/>
		</g>
		<g>
			<rect x="221.686" y="279.711" style="fill:#E8A600;" width="117.182" height="4.966"/>
			<rect x="285.735" y="279.711" style="fill:#EBCE99;" width="53.133" height="4.966"/>
		</g>
		<g>
			<g>
				<polygon style="fill:#C9C9C9;" points="283.074,277.766 225.483,277.766 215.982,234.834 273.573,234.834 				"/>
				<polygon style="fill:#808080;" points="283.074,277.766 280.954,277.766 271.453,234.834 273.573,234.834 				"/>
				<path style="fill:#FFFFFF;" d="M254.311,257.632c0.678,3.064-1.256,5.548-4.32,5.548c-3.064,0-6.098-2.484-6.776-5.548
					c-0.678-3.064,1.256-5.548,4.32-5.548C250.599,252.084,253.633,254.568,254.311,257.632z"/>
			</g>
			<rect x="225.483" y="277.766" style="fill:#C9C9C9;" width="89.278" height="1.975"/>
		</g>
	</g>
	<g>
		<path d="M140.841,111.517c0,0,2.624-1.743,3.738-6.001c0,0,3.499-1.475,3.897-4.338c0.398-2.863-2.784-4.931-6.521-4.056
			c0,0-5.206-4.541-9.284-0.203c0,0-4.396-1.626-5.827,2.827c0,0-4.056,0-4.613,2.943c-0.557,2.943,1.302,4.84,1.302,4.84
			s-0.67,5.084,2.754,7.965l3.102-7.237L140.841,111.517z"/>
		<polygon style="fill:#FF8C8C;" points="137.978,119.788 137.978,136.808 120.54,134.654 126.128,116.368 		"/>
		<path style="fill:#F05252;" d="M126.843,118.754c0,0,1.67,7.317,11.134,8.589v-6.919L126.843,118.754z"/>
		<path style="fill:#FF8C8C;" d="M128.812,106.765l-1.848,5.526c0,0-1.097-2.633-3.009-2.169c-1.912,0.464-1.383,5.514,1.787,6.435
			c0,0,0.314,5.329,6.117,6.539c5.88,1.226,8.982-2.273,8.795-7.391l1.844-10.189C142.498,105.516,136.972,109.848,128.812,106.765z
			"/>
		<path d="M133.779,112.029c-0.076,0.599-0.437,1.047-0.808,1c-0.37-0.047-0.609-0.57-0.534-1.17c0.076-0.599,0.437-1.047,0.808-1
			C133.616,110.906,133.855,111.429,133.779,112.029z"/>
		<path d="M139.303,112.725c-0.076,0.599-0.437,1.047-0.808,1c-0.37-0.047-0.609-0.57-0.534-1.17c0.076-0.599,0.437-1.047,0.808-1
			C139.139,111.603,139.378,112.126,139.303,112.725z"/>
		<path style="fill:none;stroke:#F05252;stroke-width:0.4869;stroke-miterlimit:10;" d="M137.063,111.633l-0.605,2.605
			c0,0,1.34,0.556,1.197,1.176c-0.144,0.62-1.393,0.371-1.393,0.371"/>
		<path style="fill:none;stroke:#000000;stroke-width:0.5294;stroke-miterlimit:10;" d="M132.195,109.635
			c0,0,1.898-0.731,3.123,0.309"/>
		<path style="fill:none;stroke:#000000;stroke-width:0.5294;stroke-miterlimit:10;" d="M137.978,110.448
			c0,0,1.898-0.731,3.123,0.309"/>
		<path style="fill:#FFFFFF;" d="M136.658,118.748c-0.257,0.782-0.863,1.286-1.354,1.125c-0.49-0.161-0.679-0.926-0.422-1.708
			c0.257-0.782,0.863-1.286,1.354-1.125C136.727,117.201,136.916,117.966,136.658,118.748z"/>
		<path style="fill:none;stroke:#9C612A;stroke-width:2;stroke-miterlimit:10;" d="M54.984,278.206h21.232l-4.891-8.678
			c-2.513-4.46-8.936-4.46-11.449,0L54.984,278.206z"/>
		<path d="M174.116,408.495l5.062,7.594c0,0,15.328,3.094,15.75,7.172h-28.406l-1.406-2.531v2.531h-7.031l0.984-13.078
			L174.116,408.495z"/>
		<path d="M77.454,406.05l3.316,8.503c0,0,12.53,2.631,13.845,10.383c-16.265,0-27.745-6.092-27.745-6.092l-0.831-2.774
			l-0.543,2.472l-7.537-2.875l6.844-13.781L77.454,406.05z"/>
		<path style="fill:#3E42D6;" d="M156.116,206.698l23.062,205.031h-23.062c0,0-17.719-60.469-15.469-98.156l-12.913-75.375h-3.962
			l-9.01,66.882c-1.426,10.585-3.946,20.994-7.52,31.059l-25.939,73.058l-19.125-7.031c0,0,12.375-71.719,22.5-91.125l7.875-90.562
			l6.469-15.895L156.116,206.698z"/>
		<g>
			
				<line style="fill:none;stroke:#000000;stroke-width:0.4305;stroke-miterlimit:10;" x1="129.48" y1="204.584" x2="126.491" y2="238.198"/>
			
				<line style="fill:none;stroke:#000000;stroke-width:0.4305;stroke-miterlimit:10;" x1="115.522" y1="234.167" x2="143.741" y2="235.854"/>
			<path style="fill:none;stroke:#000000;stroke-width:0.4305;stroke-miterlimit:10;" d="M133.803,204.584
				c0,0-3.94,20.66-6.47,24.137"/>
		</g>
		<polygon style="opacity:0.49;" points="156.116,206.698 99.022,204.584 92.553,220.479 90.239,247.1 123.127,242.984 
			123.772,238.198 127.734,238.198 128.44,242.319 159.683,238.409 		"/>
		<rect x="113.225" y="202.901" width="32.976" height="3.797"/>
		<path style="fill:#FF8C8C;" d="M69.437,256.673l-0.274,5.291c0,0,3.174,4.507,1.45,6.741c0,0,0.47,2.077-0.784,2.547
			c-1.254,0.47-6.741,1.254-9.602-1.607c-1.726-1.726,1.097-7.76,1.097-7.76l-0.549-4.938L69.437,256.673z"/>
		<polygon style="fill:#EBCE99;" points="71.447,258.123 58.229,258.123 57.713,253.529 71.869,253.529 		"/>
		<polygon style="fill:#EBCE99;" points="113.225,202.901 147.397,202.901 141.574,134.387 120.397,133.081 		"/>
		
			<line style="fill:none;stroke:#FFFFFF;stroke-width:0.4305;stroke-miterlimit:10;" x1="131.366" y1="134.698" x2="127.734" y2="200.933"/>
		<polygon style="opacity:0.49;" points="139.706,133.081 142.543,136.667 119.835,150.823 121.71,130.667 132.907,133.811 		"/>
		<path style="fill:#3E42D6;" d="M121.399,130.206l1.108,54.554L112.1,230.745H86.366l6.469-26.016l-0.281-20.531l-16.312,26.719
			l-3.856,44.487H57.338c0,0-2.613-22.06-3.879-34.013c-1.266-11.953,1.125-26.927,9.844-43.521
			c8.719-16.594,18.281-32.906,26.859-38.531S121.399,130.206,121.399,130.206z"/>
		
			<line style="fill:none;stroke:#000000;stroke-width:0.468;stroke-miterlimit:10;" x1="92.553" y1="184.198" x2="101.553" y2="169.011"/>
		<polygon style="fill:#696DFF;" points="120.116,182.933 107.319,194.323 112.803,226.386 113.347,225.234 122.506,184.761 
			121.399,130.206 105.491,155.23 		"/>
		
			<rect x="100.464" y="208.622" transform="matrix(0.866 0.5 -0.5 0.866 121.1922 -21.9489)" style="fill:#FFFFFF;" width="2.178" height="13.102"/>
		
			<rect x="151.089" y="208.896" transform="matrix(0.9659 -0.2589 0.2589 0.9659 -50.5832 46.7358)" style="fill:none;stroke:#000000;stroke-width:0.6158;stroke-miterlimit:10;" width="2.178" height="13.103"/>
		<path style="fill:#3E42D6;" d="M139.4,132.484l-6.493,50.871l5.583,47.437h23.813l-3.375-34.875l2.438-12.562
			c0,0,5.156,18.281,19.687,33c11.55,11.699,28.001,0.188,25.094-15.984c-1.165-6.483-6.344-16.172-6.344-16.172l-4.5,1.031
			c0,0-17.438-29.25-22.312-38.063C168.116,138.355,139.4,132.484,139.4,132.484z"/>
		
			<line style="fill:none;stroke:#000000;stroke-width:0.468;stroke-miterlimit:10;" x1="184.053" y1="192.636" x2="185.366" y2="209.229"/>
		<path style="opacity:0.49;" d="M164.904,167.137l-3.539,16.218c0,0,2.836,10.04,10.216,21.229
			C169.262,191.891,164.904,167.137,164.904,167.137z"/>
		
			<line style="fill:none;stroke:#000000;stroke-width:0.4305;stroke-miterlimit:10;" x1="161.366" y1="183.355" x2="165.973" y2="162.238"/>
		<path style="fill:#EBCE99;" d="M184.053,192.636c0,0,0.75,4.594,8.719,4.688c7.969,0.094,7.615-6.973,7.615-6.973L184.053,192.636
			z"/>
		<polygon style="fill:#696DFF;" points="204.782,190.761 175.757,195.167 184.719,152.792 213.745,148.386 		"/>
		<polygon style="fill:#696DFF;" points="139.4,132.484 152.178,157.48 135.626,184.198 145.991,197.324 137.972,226.386 
			132.907,183.355 		"/>
		
			<line style="fill:none;stroke:#000000;stroke-width:0.468;stroke-miterlimit:10;" x1="142.616" y1="315.542" x2="151.241" y2="322.292"/>
		
			<line style="fill:none;stroke:#000000;stroke-width:0.468;stroke-miterlimit:10;" x1="88.428" y1="313.479" x2="96.866" y2="321.167"/>
		<path style="fill:#9C612A;" d="M86.898,314.417H44.303c-3.175,0-5.749-2.574-5.749-5.749v-32.313h54.094v32.313
			C92.647,311.843,90.073,314.417,86.898,314.417z"/>
		<polygon style="opacity:0.49;" points="89.522,285.323 42.116,290.042 38.553,287.229 38.553,276.354 		"/>
		<g>
			
				<rect x="45.28" y="283.479" style="fill:none;stroke:#FFFFFF;stroke-width:0.3913;stroke-miterlimit:10;" width="4.078" height="24.187"/>
			
				<rect x="81.842" y="283.479" style="fill:none;stroke:#FFFFFF;stroke-width:0.3913;stroke-miterlimit:10;" width="4.078" height="24.187"/>
		</g>
		<polygon style="fill:#EBCE99;" points="89.522,285.323 41.679,285.323 38.553,276.354 92.647,276.354 		"/>
		<path style="fill:#43753F;" d="M185.178,77.605c-14.29,0-25.875,11.585-25.875,25.875s11.585,25.875,25.875,25.875
			c14.29,0,25.875-11.585,25.875-25.875S199.468,77.605,185.178,77.605z M185.178,122.498c-10.503,0-19.018-8.515-19.018-19.018
			c0-10.503,8.515-19.018,19.018-19.018s19.018,8.515,19.018,19.018C204.196,113.983,195.682,122.498,185.178,122.498z"/>
		<path style="fill:#696DFF;" d="M187.102,77.683l-0.511,6.849c9.841,0.726,17.605,8.921,17.605,18.947
			c0,1.048-0.107,2.07-0.27,3.072l6.785,1.112c0.222-1.362,0.342-2.759,0.342-4.184C211.053,89.837,200.493,78.669,187.102,77.683z"
			/>
		<path style="fill:#EBCE99;" d="M210.712,107.663l-6.785-1.112c-1.435,8.812-8.909,15.576-18.045,15.911l0.254,6.868
			C198.569,128.877,208.761,119.656,210.712,107.663z"/>
		<path style="fill:#F05252;" d="M185.178,129.355c0.321,0,0.639-0.013,0.958-0.024l-0.254-6.868
			c-0.235,0.009-0.466,0.035-0.703,0.035c-8.211,0-15.185-5.213-17.848-12.502l-6.464,2.36
			C164.488,122.274,174.006,129.355,185.178,129.355z"/>
		<text transform="matrix(1 0 0 1 172.0063 106.7222)" style="fill:#3E42D6; font-family:'Montserrat-SemiBold'; font-size:12px;">60%</text>
		<rect x="65.266" y="104.991" style="fill:#696DFF;" width="49.946" height="2.796"/>
		<rect x="65.266" y="104.991" style="fill:#3E42D6;" width="41.484" height="2.796"/>
		<rect x="65.266" y="111.008" style="fill:#696DFF;" width="49.946" height="2.796"/>
		<rect x="65.266" y="111.008" style="fill:#3E42D6;" width="16.084" height="2.796"/>
		<rect x="65.266" y="117.025" style="fill:#696DFF;" width="49.946" height="2.796"/>
		<rect x="65.266" y="117.025" style="fill:#3E42D6;" width="20.719" height="2.796"/>
		<polygon style="fill:#EBCE99;" points="121.944,126.823 131.717,131.745 138.397,129.144 141.913,133.081 135.122,139.339 
			131.366,134.698 127.499,139.339 118.639,130.676 		"/>
		<path style="fill:#FF8C8C;" d="M188.928,194.136c0,0,2.344-2.625,2.813-3.75c0.469-1.125,0.553-6.539,1.688-6.469
			c1.135,0.07,0.563,4.688,0.563,4.688s1.594-7.184,2.438-6.967c0.844,0.217,0,5.561,0,5.561s1.125-7.313,2.438-7.406
			c1.313-0.094,0,6.563,0,6.563s1.594-7.5,2.719-7.125s-1.075,6.41-0.938,6.704c0.138,0.294,1.219,1.64,0.375,3.14
			c-0.844,1.5-1.406,3.844-4.406,5.063C194.769,194.886,188.928,194.136,188.928,194.136z"/>
		
			<rect x="151.089" y="208.622" transform="matrix(0.866 -0.5 0.5 0.866 -87.1985 104.917)" style="fill:#FFFFFF;" width="2.178" height="13.103"/>
	</g>
	<g>
		<path style="fill:#FF8C8C;" d="M440.914,394.539l4.045,20.087l-5.344,4.781c0,0-7.969,2.625-7.875,4.219
			c0.094,1.594,4.443,1.5,8.55,0.938c4.106-0.563,6.45-0.844,8.513-0.656s4.219-0.938,4.219-2.813s-1.313-6.094-1.313-6.094
			l0.397-20.975L440.914,394.539z"/>
		<path style="fill:#5C4B4B;" d="M448.803,423.907c2.063,0.188,4.219-0.938,4.219-2.813c0-0.939-0.329-2.467-0.658-3.757
			c-3.716,0.798-7.3-0.132-9.407-0.92l-3.341,2.99c0,0-7.969,2.625-7.875,4.219c0.094,1.594,4.443,1.5,8.55,0.938
			C444.396,424.001,446.74,423.72,448.803,423.907z"/>
		<path style="fill:#FF8C8C;" d="M498.137,394.539l2.015,20.087l5.344,4.781c0,0,7.969,2.625,7.875,4.219
			c-0.094,1.594-4.444,1.5-8.55,0.938c-4.106-0.563-6.45-0.844-8.513-0.656s-4.219-0.938-4.219-2.813s1.313-6.094,1.313-6.094
			l-6.457-20.975L498.137,394.539z"/>
		<path style="fill:#5C4B4B;" d="M496.309,423.907c-2.063,0.188-4.219-0.938-4.219-2.813c0-0.939,0.329-2.467,0.658-3.757
			c3.716,0.798,7.3-0.132,9.407-0.92l3.341,2.99c0,0,7.969,2.625,7.875,4.219c-0.094,1.594-4.444,1.5-8.55,0.938
			C500.715,424.001,498.371,423.72,496.309,423.907z"/>
		<path style="fill:#9C612A;" d="M430.895,210.913h51.221c0,0,11.614,39.477,11.802,73.039c0.188,33.563,0,41.25,0,41.25
			s8.438,48.375,8.813,71.25h-19.313c0,0-16.875-53.25-18.187-68.625c-1.313-15.375-10.688-81-10.688-81h-2.813l4.875,88.312
			l4.875,61.312h-22.688c0,0-11.625-39-13.5-69.562C423.419,296.327,418.356,244.014,430.895,210.913z"/>
		
			<line style="fill:none;stroke:#000000;stroke-width:0.4548;stroke-miterlimit:10;" x1="455.694" y1="209.89" x2="453.418" y2="246.827"/>
		<path style="fill:none;stroke:#000000;stroke-width:0.4548;stroke-miterlimit:10;" d="M453.418,209.89
			c0,0-3.468,12.843,1.079,19.429"/>
		
			<line style="fill:none;stroke:#000000;stroke-width:0.4548;stroke-miterlimit:10;" x1="441.184" y1="244.764" x2="465.793" y2="241.249"/>
		<path style="opacity:0.49;" d="M482.117,210.913h-51.221c-2.901,7.657-4.85,16.35-6.125,25.556
			c16.375,3.578,53.828-5.68,61.847-7.754C484.201,217.998,482.117,210.913,482.117,210.913z"/>
		<polygon style="fill:#3E42D6;" points="446.986,211.952 467.69,211.952 457.338,197.983 		"/>
		<path style="fill:#B52828;" d="M456.06,109.763c4.223,0.505,8.515,1.82,9.698,6.553c1.183,4.733,2.184,5.006,4.369,5.916
			c2.184,0.91,5.643,2.549,6.189,8.374c0.546,5.825,0,6.827,2.913,9.011c2.913,2.184,8.184,4.958,6.826,11.013
			c-1.357,6.055-3.823,8.829-3.823,8.829l-41.778-0.819c0,0-2.185-11.832-2.094-15.382c0.091-3.55,1.092-7.849,3.459-9.795
			s0.364-4.316-0.455-7.955c-0.819-3.639,2.457-5.914,3.095-8.372C445.097,114.678,448.455,108.853,456.06,109.763z"/>
		<polygon style="fill:#3E42D6;" points="446.986,141.184 454.938,184.436 463.274,141.184 		"/>
		<path style="fill:#E8A600;" d="M493.545,206.702l18.516-6.797c-7.145-17.428-23.016-38.203-30.531-46.344
			c0,0-7.104-8.887-18.391-12.905l-8.007,35.206l-8.007-35.206c-11.287,4.018-18.391,12.905-18.391,12.905l3.589,40.579l-9,28.828
			c12.609,3.984,25.312-2.25,25.312-2.25l6.497-17.457l6.497,17.457c0,0,12.703,6.234,25.312,2.25l-9-28.828l1.146-12.957
			L493.545,206.702z"/>
		<path style="opacity:0.49;" d="M446.986,172.108l-4.173-12.649l-12.238,14.921l1.747,19.759l-9,28.828
			c2.916,0.921,5.835,1.292,8.602,1.324L446.986,172.108z"/>
		<path style="opacity:0.49;" d="M482.118,186.533l-2.219-13.3l-15.351,20.063h-4.078l-2.408,17.837l3.567,9.585
			c0,0,12.703,6.234,25.312,2.25l-9-28.828l1.146-12.957L482.118,186.533z"/>
		
			<line style="fill:none;stroke:#000000;stroke-width:0.4548;stroke-miterlimit:10;" x1="481.45" y1="164.187" x2="478.872" y2="179.233"/>
		<rect x="467.69" y="178.39" style="fill:#FFFFFF;" width="28.853" height="21.375"/>
		<g>
			<rect x="463.684" y="185.351" style="fill:#EBCE99;" width="31.781" height="21.234"/>
			<g>
				
					<line style="fill:none;stroke:#FFFFFF;stroke-width:0.4734;stroke-miterlimit:10;" x1="467.692" y1="186.897" x2="467.692" y2="201.663"/>
				
					<line style="fill:none;stroke:#FFFFFF;stroke-width:0.4734;stroke-miterlimit:10;" x1="472.445" y1="186.897" x2="472.445" y2="201.663"/>
				
					<line style="fill:none;stroke:#FFFFFF;stroke-width:0.4734;stroke-miterlimit:10;" x1="477.198" y1="186.897" x2="477.198" y2="201.663"/>
				
					<line style="fill:none;stroke:#FFFFFF;stroke-width:0.4734;stroke-miterlimit:10;" x1="481.951" y1="186.897" x2="481.951" y2="201.663"/>
				
					<line style="fill:none;stroke:#FFFFFF;stroke-width:0.4734;stroke-miterlimit:10;" x1="486.704" y1="186.897" x2="486.704" y2="201.663"/>
				
					<line style="fill:none;stroke:#FFFFFF;stroke-width:0.4734;stroke-miterlimit:10;" x1="491.457" y1="186.897" x2="491.457" y2="201.663"/>
			</g>
		</g>
		<path style="fill:#FF8C8C;" d="M459.526,138.626v-4.533h-8.792v4.533c0,0.571-0.34,1.087-0.864,1.314l-2.884,1.244
			c1.918,4.57,6.04,5.344,8.144,5.344c2.104,0,6.226-0.773,8.144-5.344l-2.884-1.244
			C459.866,139.713,459.526,139.197,459.526,138.626z"/>
		<path style="fill:#F05252;" d="M450.734,135.874c0,0,2.244,2.766,8.792,2.25v-4.031h-8.792V135.874z"/>
		<path style="fill:#FF8C8C;" d="M454.479,117.329c0,0,3.069,4.766,8.202,6.841c0,0-0.388,5.09-1.081,7.943
			c-0.694,2.853-3.615,4.416-6.658,4.577s-5.827-1.897-6.466-5.102c-0.639-3.205-0.895-7.271-0.895-7.271
			S451.28,121.63,454.479,117.329z"/>
		<path style="fill:#FF8C8C;" d="M447.652,125.671c0,0-0.748-1.134-1.747-0.94c-0.999,0.194-0.807,2.93,0.208,3.932
			c1.015,1.002,1.933,0.295,1.933,0.295L447.652,125.671z"/>
		<g>
			<path style="fill:none;stroke:#B52828;stroke-miterlimit:10;" d="M450.587,124.65c0,0,2.074-0.668,3.516,0.281"/>
			<path style="fill:none;stroke:#B52828;stroke-miterlimit:10;" d="M459.967,124.65c0,0-2.074-0.668-3.516,0.281"/>
		</g>
		<g>
			<ellipse cx="452.382" cy="128.093" rx="0.715" ry="1.078"/>
			<path d="M458.886,128.093c0,0.595-0.32,1.078-0.715,1.078c-0.395,0-0.715-0.483-0.715-1.078c0-0.595,0.32-1.078,0.715-1.078
				C458.566,127.015,458.886,127.497,458.886,128.093z"/>
		</g>
		<polyline style="fill:none;stroke:#F05252;stroke-width:0.4664;stroke-miterlimit:10;" points="454.664,127.015 454.418,130.741 
			456,130.425 		"/>
		<path style="fill:none;stroke:#F05252;stroke-width:0.4664;stroke-miterlimit:10;" d="M451.668,131.866c0,0,3.548,1.723,6.542,0"
			/>
		<path style="fill:#EBCE99;" d="M463.137,140.655l4.172,8.173c1.839,3.603,1.173,7.978-1.654,10.871l-3.424,3.503l0.378,0.65
			c1.493,2.566,0.82,5.844-1.563,7.615l-5.916,4.395L463.137,140.655z"/>
		<path style="fill:#EBCE99;" d="M447.123,140.655l-4.172,8.173c-1.839,3.603-1.173,7.978,1.655,10.871l3.424,3.503l-0.378,0.65
			c-1.493,2.566-0.82,5.844,1.563,7.615l5.916,4.395L447.123,140.655z"/>
		<g>
			<path style="fill:#FFFFFF;" d="M452.363,172.108h-7.675c-1.065,0-1.928-0.863-1.928-1.928v-17.425
				c0-1.065,0.863-1.928,1.928-1.928h7.675c1.065,0,1.928,0.863,1.928,1.928v17.425
				C454.291,171.245,453.428,172.108,452.363,172.108z"/>
			<path style="fill:none;stroke:#000000;stroke-width:0.4548;stroke-miterlimit:10;" d="M445.807,153.359
				c0,0.466-0.378,0.844-0.844,0.844c-0.466,0-0.844-0.378-0.844-0.844c0-0.466,0.378-0.844,0.844-0.844
				C445.429,152.515,445.807,152.893,445.807,153.359z"/>
		</g>
		<path style="fill:#FF8C8C;" d="M436.262,174.265l2.813-3.703c0,0,1.125-5.391,1.922-6.797c0.797-1.406,5.136-7.266,5.99-6.844
			c0.854,0.422-3.458,6.703-3.458,6.703s4.688-3.891,5.25-3.141s-4.313,4.594-4.313,4.594s4.5-2.612,4.875-2.267
			s-4.377,3.673-4.377,3.673s4.279-1.078,4.398-0.516c0.12,0.563-3.555,1.594-3.555,1.594s-0.732,4.594-3.263,5.953
			c0,0-1.547,4.359-1.547,4.5C440.997,178.155,436.262,174.265,436.262,174.265z"/>
		<path style="fill:#E8A600;" d="M436.262,171.077l8.25,6.941c0,0-3.938,12.277-10.031,24.277c-6.094,12-13.97,19.356-22.781,16.453
			c-9.816-3.234-12.562-13.922-7.5-24.984c5.063-11.063,20.443-36.023,24.533-40.204l2.163,24.458L436.262,171.077z"/>
		
			<line style="fill:none;stroke:#000000;stroke-width:0.4548;stroke-miterlimit:10;" x1="436.262" y1="171.077" x2="411.7" y2="200.515"/>
		
			<line style="fill:none;stroke:#000000;stroke-width:0.4548;stroke-miterlimit:10;" x1="411.7" y1="193.296" x2="420.518" y2="190.18"/>
		
			<line style="fill:none;stroke:#000000;stroke-width:0.4548;stroke-miterlimit:10;" x1="429.361" y1="160.672" x2="430.895" y2="178.018"/>
		
			<line style="fill:none;stroke:#000000;stroke-width:0.502;stroke-miterlimit:10;" x1="455.13" y1="177.077" x2="455.13" y2="200.983"/>
		<polygon style="fill:#43753F;" points="474.325,197.046 471.981,190.675 462.418,190.675 462.418,220.014 497.381,220.014 
			497.381,197.046 		"/>
		
			<line style="fill:none;stroke:#000000;stroke-width:0.4885;stroke-miterlimit:10;" x1="491.106" y1="197.983" x2="491.106" y2="218.983"/>
		<g>
			
				<ellipse transform="matrix(0.7071 -0.7071 0.7071 0.7071 68.6364 381.5199)" style="fill:#3E42D6;" cx="494.853" cy="107.908" rx="22.234" ry="22.234"/>
			
				<ellipse transform="matrix(0.7071 -0.7071 0.7071 0.7071 68.6364 381.5199)" style="fill:#FFFFFF;" cx="494.853" cy="107.908" rx="18.173" ry="18.173"/>
			<g>
				<path style="fill:#E8A600;" d="M495.73,92.427c0,0.5-0.405,0.905-0.905,0.905c-0.5,0-0.905-0.405-0.905-0.905
					c0-0.5,0.405-0.906,0.905-0.906C495.324,91.521,495.73,91.927,495.73,92.427z"/>
				<path style="fill:#E8A600;" d="M495.73,123.39c0,0.5-0.405,0.905-0.905,0.905c-0.5,0-0.905-0.405-0.905-0.905
					c0-0.5,0.405-0.905,0.905-0.905C495.324,122.485,495.73,122.89,495.73,123.39z"/>
				<path style="fill:#E8A600;" d="M487.86,94.082c0.25,0.433,0.102,0.987-0.331,1.237c-0.433,0.25-0.987,0.102-1.237-0.331
					c-0.25-0.433-0.102-0.987,0.331-1.237C487.056,93.501,487.61,93.649,487.86,94.082z"/>
				<path style="fill:#E8A600;" d="M503.342,120.898c0.25,0.433,0.102,0.987-0.331,1.237c-0.433,0.25-0.987,0.102-1.237-0.331
					c-0.25-0.433-0.102-0.987,0.331-1.237C502.538,120.316,503.092,120.465,503.342,120.898z"/>
				<path style="fill:#E8A600;" d="M481.872,99.451c0.433,0.25,0.582,0.804,0.331,1.237c-0.25,0.433-0.804,0.581-1.237,0.331
					c-0.433-0.25-0.581-0.804-0.331-1.237C480.886,99.35,481.439,99.201,481.872,99.451z"/>
				<path style="fill:#E8A600;" d="M508.688,114.933c0.433,0.25,0.581,0.804,0.331,1.237c-0.25,0.433-0.804,0.581-1.237,0.331
					c-0.433-0.25-0.581-0.804-0.331-1.237C507.701,114.831,508.255,114.683,508.688,114.933z"/>
				<path style="fill:#E8A600;" d="M479.372,107.094c0.5,0,0.905,0.405,0.905,0.905c0,0.5-0.405,0.906-0.905,0.906
					c-0.5,0-0.905-0.405-0.905-0.906C478.466,107.5,478.872,107.094,479.372,107.094z"/>
				<path style="fill:#E8A600;" d="M510.335,107.094c0.5,0,0.905,0.405,0.905,0.905c0,0.5-0.405,0.906-0.905,0.906
					c-0.5,0-0.905-0.405-0.905-0.906C509.43,107.5,509.835,107.094,510.335,107.094z"/>
				<path style="fill:#E8A600;" d="M481.027,114.964c0.433-0.25,0.987-0.102,1.237,0.331c0.25,0.433,0.102,0.987-0.331,1.237
					s-0.987,0.102-1.237-0.331C480.446,115.768,480.594,115.214,481.027,114.964z"/>
				<path style="fill:#E8A600;" d="M507.843,99.482c0.433-0.25,0.987-0.102,1.237,0.331c0.25,0.433,0.102,0.987-0.331,1.237
					c-0.433,0.25-0.987,0.102-1.237-0.331C507.261,100.286,507.41,99.732,507.843,99.482z"/>
				<path style="fill:#E8A600;" d="M486.396,120.951c0.25-0.433,0.804-0.581,1.237-0.331c0.433,0.25,0.581,0.804,0.331,1.237
					c-0.25,0.433-0.804,0.581-1.237,0.331C486.295,121.938,486.146,121.385,486.396,120.951z"/>
				<path style="fill:#E8A600;" d="M501.878,94.136c0.25-0.433,0.804-0.581,1.237-0.331c0.433,0.25,0.581,0.804,0.331,1.237
					c-0.25,0.433-0.804,0.581-1.237,0.331C501.776,95.123,501.628,94.57,501.878,94.136z"/>
			</g>
			<polyline style="fill:none;stroke:#000000;stroke-linecap:round;stroke-linejoin:round;stroke-miterlimit:10;" points="
				485.777,104.095 494.853,107.909 506.222,101.172 			"/>
		</g>
		<g>
			<path style="fill:#E8A600;" d="M431.902,109.667h-20.911c-1.332,0-2.412,1.08-2.412,2.412v12.523c0,1.332,1.08,2.412,2.412,2.412
				h14.674l7.242,6.718l-2.254-6.718h1.248c1.332,0,2.412-1.08,2.412-2.412v-12.523
				C434.314,110.747,433.234,109.667,431.902,109.667z"/>
			<g>
				<circle style="fill:#3E42D6;" cx="415.589" cy="118.341" r="1.312"/>
				<path style="fill:#3E42D6;" d="M422.759,118.341c0,0.725-0.587,1.312-1.312,1.312c-0.724,0-1.312-0.587-1.312-1.312
					c0-0.725,0.587-1.312,1.312-1.312C422.172,117.029,422.759,117.617,422.759,118.341z"/>
				<circle style="fill:#3E42D6;" cx="427.305" cy="118.341" r="1.312"/>
			</g>
		</g>
		<path style="fill:#FF8C8C;" d="M482.775,215.646c0,0-2.587,1.087-4.501,0.724c-1.914-0.362-6.829-1.449-7.14-1.035
			c-0.31,0.414,3.104,1.087,3.57,1.604c0.466,0.517-3.88,3.001-6.364,2.846c0,0,1.811,1.242,3.415,1.087
			c0,0,1.604,1.035,3.104,0.776c1.5-0.259,2.69,0.362,4.501-1.397l5.277-0.259L482.775,215.646z"/>
		<path style="fill:#E8A600;" d="M501.606,197.233c0,0-16.406,15.469-20.156,18.281l2.344,9.844c0,0,13.594-4.125,21.75-6.938
			c8.156-2.813,9.046-12.912,6.516-18.516C509.528,194.302,501.606,197.233,501.606,197.233z"/>
		<polyline style="fill:none;stroke:#000000;stroke-width:0.4885;stroke-miterlimit:10;" points="500.809,197.983 481.45,215.515 
			483.793,225.358 		"/>
	</g>
	<g>
		<g>
			<rect x="610.221" y="83.735" style="fill:#696DFF;" width="97.875" height="73.175"/>
			<polygon style="fill:#E8A600;" points="697.877,133.912 620.439,133.912 620.439,123.661 631.502,126.312 642.564,116.062 
				653.627,118.018 664.689,110.583 675.752,123.838 686.814,102.453 697.877,98.035 			"/>
			<g>
				
					<line style="fill:none;stroke:#FFFFFF;stroke-width:0.4856;stroke-miterlimit:10;" x1="697.877" y1="133.849" x2="620.439" y2="133.849"/>
				
					<line style="fill:none;stroke:#FFFFFF;stroke-width:0.4856;stroke-miterlimit:10;" x1="620.439" y1="92.812" x2="620.439" y2="133.849"/>
				
					<line style="fill:none;stroke:#FFFFFF;stroke-width:0.4856;stroke-miterlimit:10;" x1="631.502" y1="92.812" x2="631.502" y2="133.849"/>
				
					<line style="fill:none;stroke:#FFFFFF;stroke-width:0.4856;stroke-miterlimit:10;" x1="642.564" y1="92.812" x2="642.564" y2="133.849"/>
				
					<line style="fill:none;stroke:#FFFFFF;stroke-width:0.4856;stroke-miterlimit:10;" x1="653.627" y1="92.812" x2="653.627" y2="133.849"/>
				
					<line style="fill:none;stroke:#FFFFFF;stroke-width:0.4856;stroke-miterlimit:10;" x1="664.689" y1="92.812" x2="664.689" y2="133.849"/>
				
					<line style="fill:none;stroke:#FFFFFF;stroke-width:0.4856;stroke-miterlimit:10;" x1="675.752" y1="92.812" x2="675.752" y2="133.849"/>
				
					<line style="fill:none;stroke:#FFFFFF;stroke-width:0.4856;stroke-miterlimit:10;" x1="686.814" y1="92.812" x2="686.814" y2="133.849"/>
				
					<line style="fill:none;stroke:#FFFFFF;stroke-width:0.4856;stroke-miterlimit:10;" x1="697.877" y1="92.812" x2="697.877" y2="133.849"/>
			</g>
			<path style="fill:none;stroke:#FFFFFF;stroke-width:0.4856;stroke-miterlimit:10;" d="M641.85,142.163h-19.01
				c-1.326,0-2.401-1.075-2.401-2.402l0,0c0-1.326,1.075-2.401,2.401-2.401h19.01c1.326,0,2.401,1.075,2.401,2.401l0,0
				C644.252,141.088,643.177,142.163,641.85,142.163z"/>
			<path style="fill:none;stroke:#FFFFFF;stroke-width:0.4856;stroke-miterlimit:10;" d="M641.85,150.415h-19.01
				c-1.326,0-2.401-1.075-2.401-2.401l0,0c0-1.326,1.075-2.402,2.401-2.402h19.01c1.326,0,2.401,1.075,2.401,2.402l0,0
				C644.252,149.339,643.177,150.415,641.85,150.415z"/>
		</g>
		<path style="fill:#FF8C8C;" d="M622.997,310.393c0,0,8.237,88.314,9.195,93.483c0.958,5.168,4.597,13.311,4.597,13.311
			s7.471,5.077,6.704,7.087c-0.766,2.01-9.769-1.054-12.643-2.587c-2.873-1.532-7.558-5.763-7.558-5.763l1.046,6.721l-3.065-0.192
			c0,0-2.49-6.896-1.724-9.769c0.766-2.873,2.969-8.811,2.969-8.811c0-8.635-7.918-39.157-11.398-49.421
			c-7.662-22.604-4.98-44.058-4.98-44.058H622.997z"/>
		<path style="fill:#FF8C8C;" d="M570.776,310.644c0,0-22.5,85.796-23.37,90.98c-0.87,5.184-0.238,14.08-0.238,14.08
			s5.281,7.328,3.872,8.954c-1.408,1.627-8.818-4.336-10.993-6.759c-2.175-2.424-5.128-8.002-5.128-8.002l-1.319,6.672l-2.814-1.229
			c0,0,0.021-7.332,1.725-9.769c1.704-2.437,5.807-7.262,5.807-7.262c2.957-8.113,5.968-39.501,6.213-50.337
			c0.54-23.861,10.406-43.1,10.406-43.1l8.848-18.281L570.776,310.644z"/>
		<path style="fill:#2E31A1;" d="M624.338,422.644l-1.046-6.721c0,0,4.685,4.23,7.558,5.763c2.873,1.532,11.876,4.597,12.643,2.587
			c0.766-2.01-6.705-7.087-6.705-7.087s-1.028-2.305-2.135-5.234l-4.283,0.923l-8.956-5.944c-0.668,1.895-1.465,4.244-1.867,5.752
			c-0.766,2.873,1.724,9.769,1.724,9.769L624.338,422.644z"/>
		<path style="fill:#2E31A1;" d="M533.6,416.569l1.319-6.672c0,0,2.953,5.579,5.128,8.002c2.175,2.424,9.584,8.386,10.993,6.759
			c1.408-1.627-3.872-8.954-3.872-8.954s-0.177-2.517-0.214-5.649l-4.34-0.599l-6.38-8.651c-1.276,1.552-2.829,3.486-3.723,4.765
			c-1.704,2.437-1.725,9.769-1.725,9.769L533.6,416.569z"/>
		<g>
			<path style="fill:#F05252;" d="M622.997,310.393H606.14c0,0-0.348,2.805-0.434,7.44l17.87-1.257
				C623.212,312.7,622.997,310.393,622.997,310.393z"/>
			<path style="fill:#F05252;" d="M563.786,286.59l-8.848,18.281c0,0-3.408,6.652-6.328,16.977l19.593-1.378
				c1.577-6.031,2.573-9.827,2.573-9.827L563.786,286.59z"/>
		</g>
		<path style="fill:#E8A600;" d="M560.79,297.942l1.963,14.175h61.586c-3.065-47.456-13.217-91.372-13.217-91.372
			c-14.941-13.217-50.171-2.075-50.171-2.075c-3.814,9.418-4.806,18.932-4.806,31c0,12.068,2.49,32.564-0.383,42.334
			c-2.873,9.769-4.981,20.113-4.981,20.113h8.001L560.79,297.942z"/>
		<path style="opacity:0.49;" d="M611.121,220.745c-14.941-13.217-50.171-2.075-50.171-2.075
			c-2.951,7.286-4.208,14.634-4.628,23.172c19.23,4.47,47.619-5.743,57.226-9.57C612.103,224.993,611.121,220.745,611.121,220.745z"
			/>
		<path style="fill:#FF8C8C;" d="M648.865,157.771c0,0,4.454-5.268,5.411-7.662c0.958-2.394,0.958-4.501,2.825-6.13
			c1.868-1.628,3.654-2.254,5.507-1.724c0.335,0.096-0.575,0.622-1.533,1.197c-0.958,0.575-1.197,1.82-0.527,2.059
			c0.671,0.24,1.676-1.006,1.676-1.006s-0.144-2.059,0.671-2.155c0.814-0.096,1.963,0.623,1.772,2.49
			c-0.192,1.868-0.862,5.747-2.347,6.944c-1.484,1.197-4.214,1.868-4.214,1.868l-3.208,10.057L648.865,157.771z"/>
		<path style="fill:none;stroke:#F05252;stroke-width:0.4664;stroke-miterlimit:10;" d="M662.226,144.506
			c0,0-2.394,2.299-2.394,3.448c0,1.149,0.862,2.107,0.335,3.017"/>
		<path style="fill:#B52828;" d="M604.268,142.111c2.734,1.054,9.343,8.907,13.174,15.42s14.079,20.688,14.079,20.688l18.964-25.525
			c0,0,4.406,3.4,8.812,6.848c0,0-4.214,14.75-8.237,29.021c-4.023,14.271-16.474,20.449-26.53,14.343
			c-10.057-6.106-17.431-23.633-17.431-23.633L604.268,142.111z"/>
		
			<line style="fill:none;stroke:#000000;stroke-width:0.4856;stroke-miterlimit:10;" x1="631.521" y1="178.22" x2="625.368" y2="186.456"/>
		
			<line style="fill:none;stroke:#000000;stroke-width:0.4856;stroke-miterlimit:10;" x1="629.319" y1="179.201" x2="621.632" y2="185.092"/>
		<path style="opacity:0.49;" d="M624.802,168.712c-2.75-3.97-5.675-8.316-7.36-11.18c-3.831-6.513-10.44-14.367-13.174-15.42
			l2.83,37.162c0,0,1.877,4.458,5.026,9.66C613.17,178.271,620.065,171.888,624.802,168.712z"/>
		<polygon style="fill:#FFFFFF;" points="578.461,143.069 600.525,141.98 604.991,192.395 587.655,194.119 		"/>
		<path d="M588.134,107.04c4.502-0.126,9.961,0.017,12.068,3.657c2.107,3.64,1.532,7.758,2.059,9.769
			c0.527,2.011,3.831,8.716,0.623,13.169h-8.955l-9.195-3.64l-3.735-13.265L588.134,107.04z"/>
		<path style="fill:#FF8C8C;" d="M595.185,111.409c0,0,4.251,1.682,4.346,7.189c0,0,2.203,2.586,1.245,6.896
			c-0.958,4.31-5.124,5.028-5.124,5.028l-1.149,7.279l3.783,3.4c0,0-1.245,7.088-3.783,11.493l-13.84-8.62l-2.203-5.363
			c0,0,3.304-2.203,4.454-5.651c1.149-3.448-0.239-10.919-0.239-10.919l4.693-8.668L595.185,111.409z"/>
		<path style="fill:#F05252;" d="M595.653,130.522c-2.179,0.694-4.98-0.742-6.058-2.861c0,0,0.793,5.039,5.64,5.507L595.653,130.522
			z"/>
		<path style="fill:#B52828;" d="M596.132,216.483c0,0,0.923,7.203,1.364,10.28c9.799-0.664,16.091-1.977,16.091-1.977l-5.53-33.157
			c0,0,4.118-18.198,5.363-26.722s-9.152-22.795-9.152-22.795l-9.764-4.31c7.518,5.363,8.764,24.423,8.189,31.223
			s-5.747,20.88-5.747,20.88l-15.52-45.355l-2.039-6.562c-6.736,2.101-15.581,8.626-15.581,8.626l1.341,36.396l-8.524,41.089
			c14.212,3.082,27.901,3.36,38.302,2.819L596.132,216.483z"/>
		<g>
			<path style="fill:#FFFFFF;" d="M604.016,213.209h-2.654c-2.421,0-4.384-1.963-4.384-4.383v-7.964H608.4v7.964
				C608.4,211.246,606.437,213.209,604.016,213.209z"/>
			
				<ellipse style="fill:none;stroke:#FFFFFF;stroke-width:1.0976;stroke-miterlimit:10;" cx="595.846" cy="205.964" rx="4.12" ry="3.859"/>
		</g>
		
			<line style="fill:none;stroke:#000000;stroke-width:0.4856;stroke-miterlimit:10;" x1="656.192" y1="150.013" x2="671.42" y2="131.815"/>
		<g style="opacity:0.49;">
			<path d="M596.022,217.43c-14.516-15.652-27.03-43.799-31.629-54.889l0.754,20.468l-8.524,41.089
				c14.212,3.082,27.901,3.36,38.302,2.819L596.022,217.43z"/>
			<path d="M596.29,217.714c0.283,2.192,0.878,6.76,1.205,9.049c3.421-0.232,6.401-0.543,8.849-0.849
				C602.938,224.048,599.565,221.203,596.29,217.714z"/>
		</g>
		<path style="fill:#FF8C8C;" d="M578.609,203.792c0,0,7.806,1.054,9.195,0.862c1.389-0.192,2.634-0.862,4.549-1.101
			c1.916-0.24,3.496,0.286,3.64,1.125c0.144,0.839-0.287,1.461-0.287,1.461s0.144,0.91-0.096,1.341
			c-0.24,0.431,0.335,1.102-0.096,1.916c-0.431,0.814-0.634,1.24-1.293,1.58c-0.659,0.34-4.502,0.287-6.465-0.958l-10.152,0.814
			L578.609,203.792z"/>
		<g>
			<path d="M595.804,118.566c0.069,0.511-0.115,0.957-0.41,0.997c-0.295,0.04-0.59-0.342-0.659-0.854s0.115-0.957,0.41-0.997
				C595.44,117.673,595.735,118.055,595.804,118.566z"/>
			<path d="M598.972,118.141c0.069,0.511-0.115,0.957-0.41,0.997c-0.295,0.04-0.59-0.342-0.659-0.854
				c-0.069-0.511,0.115-0.957,0.41-0.997C598.608,117.248,598.903,117.63,598.972,118.141z"/>
		</g>
		<path style="fill:none;stroke:#000000;stroke-width:0.4856;stroke-miterlimit:10;" d="M593.568,116.91
			c0,0,0.809-0.808,2.426-0.703"/>
		<path style="fill:none;stroke:#000000;stroke-width:0.4856;stroke-miterlimit:10;" d="M597.329,115.926
			c0,0,0.645-0.496,1.729-0.143"/>
		<path style="fill:none;stroke:#F05252;stroke-width:0.4664;stroke-miterlimit:10;" d="M597.136,118l0.439,2.021
			c0,0,1.002,0.053,0.984,0.492c-0.018,0.439-0.791,0.703-0.791,0.703"/>
		<path style="fill:none;stroke:#F05252;stroke-width:0.4664;stroke-miterlimit:10;" d="M599.72,122.666
			c0,0-1.863,1.025-5.977,0.151"/>
		<path d="M580.568,110.936c-1.451,3.628-1.58,5.268-3.209,9.051c-1.628,3.783-7.327,12.451-2.73,14.223
			c4.597,1.772,15.995,0.383,15.995,0.383c-1.628-2.011-1.341-7.95-1.341-7.95c-3.065-0.192-2.634-5.651-0.91-5.507
			c1.724,0.144,1.868,2.825,1.868,2.825c3.879-2.059,0.958-4.98,1.485-7.758c0.527-2.778,3.592-4.502,3.592-4.502
			s-1.197-3.041-4.07-4.118C588.374,106.506,582.244,106.745,580.568,110.936z"/>
		<path style="fill:#F05252;" d="M579.387,137.987c0,0,15.26,29.122,17.559,51.342c0,0-6.8-6.704-9.482-12.068
			c-2.682-5.364,0.096-13.603,0.096-13.603s-12.547-7.085-13.409-10.964C573.289,148.816,577.789,139.594,579.387,137.987z"/>
		<path style="fill:#F05252;" d="M594.503,137.801c0,0,6.369,11.589,7.04,21.741c0.67,10.153-4.597,30.362-4.597,30.362
			s6.609-9.195,8.62-15.516c2.011-6.321-1.298-14.175-1.298-14.175s3.309-2.586,3.213-6.896
			C607.385,149.007,599.244,139.046,594.503,137.801z"/>
		<path style="fill:#B52828;" d="M563.807,146.613c-4.31,3.448-9.961,12.547-13.888,20.975
			c-3.927,8.428-10.152,23.631-12.164,31.977c-2.011,8.346,1.149,20.605,16.857,19.648c15.708-0.958,30.074-4.889,30.074-4.889
			v-10.435l-22.508-2.49c0,0,3.138-18.24,4.502-24.711C568.5,168.049,570.415,151.498,563.807,146.613z"/>
		
			<line style="fill:none;stroke:#000000;stroke-width:0.4856;stroke-miterlimit:10;" x1="562.178" y1="201.398" x2="550.11" y2="199.565"/>
		
			<line style="fill:none;stroke:#000000;stroke-width:0.4856;stroke-miterlimit:10;" x1="553.982" y1="197.55" x2="559.607" y2="199.565"/>
		<g>
			
				<line style="fill:none;stroke:#FFFFFF;stroke-width:0.5;stroke-miterlimit:10;" x1="599.122" y1="194.406" x2="599.122" y2="199.609"/>
			
				<line style="fill:none;stroke:#FFFFFF;stroke-width:0.5;stroke-miterlimit:10;" x1="601.325" y1="194.406" x2="601.325" y2="199.609"/>
			
				<line style="fill:none;stroke:#FFFFFF;stroke-width:0.5;stroke-miterlimit:10;" x1="603.528" y1="194.406" x2="603.528" y2="199.609"/>
			
				<line style="fill:none;stroke:#FFFFFF;stroke-width:0.5;stroke-miterlimit:10;" x1="605.732" y1="194.406" x2="605.732" y2="199.609"/>
		</g>
	</g>
</g>
</svg>
